<?xml version="1.0" encoding="UTF-8" standalone="no"?>
<svg
   width="50"
   height="40"
   version="1.1"
   id="svg94"
   sodipodi:docname="Maya0.svg"
   inkscape:version="1.1.2 (b8e25be833, 2022-02-05)"
   xmlns:inkscape="http://www.inkscape.org/namespaces/inkscape"
   xmlns:sodipodi="http://sodipodi.sourceforge.net/DTD/sodipodi-0.dtd"
   xmlns="http://www.w3.org/2000/svg"
   xmlns:svg="http://www.w3.org/2000/svg">
  <defs
     id="defs98" />
  <sodipodi:namedview
     id="namedview96"
     pagecolor="#ffffff"
     bordercolor="#666666"
     borderopacity="1.0"
     inkscape:pageshadow="2"
     inkscape:pageopacity="0.0"
     inkscape:pagecheckerboard="0"
     showgrid="false"
     inkscape:zoom="6.4875"
     inkscape:cx="14.874759"
     inkscape:cy="24.662813"
     inkscape:window-width="1366"
     inkscape:window-height="705"
     inkscape:window-x="-8"
     inkscape:window-y="-8"
     inkscape:window-maximized="1"
     inkscape:current-layer="svg94" />
  <g
     fill="none"
     stroke="#000000"
     stroke-linecap="round"
     stroke-width="1.5"
     id="g12"
     transform="translate(-0.014,-48.2525)">
    <path
       d="M 44.45,75.628 A 19.436,9.8745 0 0 1 25.014,85.5025 19.436,9.8745 0 0 1 5.578,75.628 19.436,9.8745 0 0 1 25.014,65.7535 19.436,9.8745 0 0 1 44.45,75.628 Z"
       id="path2" />
    <path
       d="m 43.55,72.678 c -2.4711,4.0111 -9.8462,6.9243 -18.552,6.9243 -8.6929,0 -16.059,-2.9043 -18.541,-6.9059"
       id="path4" />
    <path
       d="m 25.25,79.628 c -1.7531,-1.8226 -2.7617,-3.9572 -2.7617,-6.2384 0,-2.8323 1.5549,-5.4387 4.1591,-7.5025"
       id="path6" />
    <path
       d="m 32.25,78.888 c -0.9309,-1.4182 -1.4443,-2.9712 -1.4443,-4.5987 0,-2.7072 1.4206,-5.208 3.8202,-7.2259"
       id="path8" />
    <path
       d="m 17.25,78.798 c -1.4864,-1.7151 -2.3308,-3.6796 -2.3308,-5.7668 0,-2.4304 1.1449,-4.6944 3.1152,-6.5921"
       id="path10" />
  </g>
</svg>
